# xmcd
#
# Track frame offsets: 
#        150
#        15657
#        30625
#        43564
#        56116
#        71816
#        85430
#        99947
#        115801
#        136748
#        147324
#        162513
#        179203
#
# Disc length: 2595 seconds
#
# Revision: 0
# Processed by: cddbd v1.5.2PL0 Copyright (c) Steve Scherf et al.
# Submitted via: ExactAudioCopy v0.99pb3
#
DISCID=b90a210d
DTITLE=Carolina Åkerlind - Love me
DYEAR=1900
DGENRE=Country
TTITLE0=Love me
TTITLE1=Don't leave me standing here
TTITLE2=Do you love as good as you look
TTITLE3=Black vinyl car seat
TTITLE4=I still miss someone
TTITLE5=She's got you
TTITLE6=Boot Scootin' boogie
TTITLE7=I wonder where you are tonight
TTITLE8=If I'm not already crazy
TTITLE9=You're gonna lose her
TTITLE10=I just want to dance with you
TTITLE11=Loving you makes me strong
TTITLE12=Älska mig (bonus)
EXTD=
EXTT0=
EXTT1=
EXTT2=
EXTT3=
EXTT4=
EXTT5=
EXTT6=
EXTT7=
EXTT8=
EXTT9=
EXTT10=
EXTT11=
EXTT12=
PLAYORDER=
